<svg xmlns="http://www.w3.org/2000/svg" width="560" height="300" viewBox="0 0 560 300" font-family="sans-serif"><rect width="560" height="300" fill="#fff"/><text x="10" y="20" font-size="13" text-anchor="start" fill="#333" font-weight="bold">Top 12 platforms by units sold (M)</text><text x="29" y="47" font-size="10" text-anchor="end" fill="#333">PS2</text><rect x="35" y="34" width="455" height="16" fill="#1f6f8b"/><text x="494" y="47" font-size="9" text-anchor="start" fill="#333">1,256</text><text x="29" y="69" font-size="10" text-anchor="end" fill="#333">X360</text><rect x="35" y="56" width="355" height="16" fill="#1f6f8b"/><text x="394" y="69" font-size="9" text-anchor="start" fill="#333">980</text><text x="29" y="91" font-size="10" text-anchor="end" fill="#333">PS3</text><rect x="35" y="78" width="347" height="16" fill="#1f6f8b"/><text x="386" y="91" font-size="9" text-anchor="start" fill="#333">958</text><text x="29" y="113" font-size="10" text-anchor="end" fill="#333">WII</text><rect x="35" y="100" width="336" height="16" fill="#1f6f8b"/><text x="375" y="113" font-size="9" text-anchor="start" fill="#333">927</text><text x="29" y="135" font-size="10" text-anchor="end" fill="#333">DS</text><rect x="35" y="122" width="298" height="16" fill="#1f6f8b"/><text x="337" y="135" font-size="9" text-anchor="start" fill="#333">822</text><text x="29" y="157" font-size="10" text-anchor="end" fill="#333">PS</text><rect x="35" y="144" width="265" height="16" fill="#1f6f8b"/><text x="304" y="157" font-size="9" text-anchor="start" fill="#333">731</text><text x="29" y="179" font-size="10" text-anchor="end" fill="#333">GBA</text><rect x="35" y="166" width="115" height="16" fill="#1f6f8b"/><text x="154" y="179" font-size="9" text-anchor="start" fill="#333">318</text><text x="29" y="201" font-size="10" text-anchor="end" fill="#333">PSP</text><rect x="35" y="188" width="107" height="16" fill="#1f6f8b"/><text x="146" y="201" font-size="9" text-anchor="start" fill="#333">296</text><text x="29" y="223" font-size="10" text-anchor="end" fill="#333">PS4</text><rect x="35" y="210" width="101" height="16" fill="#1f6f8b"/><text x="140" y="223" font-size="9" text-anchor="start" fill="#333">278</text><text x="29" y="245" font-size="10" text-anchor="end" fill="#333">PC</text><rect x="35" y="232" width="94" height="16" fill="#1f6f8b"/><text x="133" y="245" font-size="9" text-anchor="start" fill="#333">259</text><text x="29" y="267" font-size="10" text-anchor="end" fill="#333">XB</text><rect x="35" y="254" width="94" height="16" fill="#1f6f8b"/><text x="132" y="267" font-size="9" text-anchor="start" fill="#333">258</text><text x="29" y="289" font-size="10" text-anchor="end" fill="#333">GB</text><rect x="35" y="276" width="93" height="16" fill="#1f6f8b"/><text x="131" y="289" font-size="9" text-anchor="start" fill="#333">255</text></svg>