<svg xmlns="http://www.w3.org/2000/svg" width="560" height="300" viewBox="0 0 560 300" font-family="sans-serif"><rect width="560" height="300" fill="#fff"/><text x="10" y="20" font-size="13" text-anchor="start" fill="#333" font-weight="bold">Units sold by release year (M)</text><line x1="58" y1="260" x2="546" y2="260" stroke="#eee"/><text x="54" y="263" font-size="8" text-anchor="end" fill="#666">0</text><line x1="58" y1="204" x2="546" y2="204" stroke="#eee"/><text x="54" y="206" font-size="8" text-anchor="end" fill="#666">170</text><line x1="58" y1="147" x2="546" y2="147" stroke="#eee"/><text x="54" y="150" font-size="8" text-anchor="end" fill="#666">339</text><line x1="58" y1="90" x2="546" y2="90" stroke="#eee"/><text x="54" y="94" font-size="8" text-anchor="end" fill="#666">509</text><line x1="58" y1="34" x2="546" y2="34" stroke="#eee"/><text x="54" y="37" font-size="8" text-anchor="end" fill="#666">679</text><text x="58" y="274" font-size="8" text-anchor="middle" fill="#666">1980</text><text x="112" y="274" font-size="8" text-anchor="middle" fill="#666">1984</text><text x="166" y="274" font-size="8" text-anchor="middle" fill="#666">1988</text><text x="221" y="274" font-size="8" text-anchor="middle" fill="#666">1992</text><text x="275" y="274" font-size="8" text-anchor="middle" fill="#666">1996</text><text x="329" y="274" font-size="8" text-anchor="middle" fill="#666">2000</text><text x="383" y="274" font-size="8" text-anchor="middle" fill="#666">2004</text><text x="438" y="274" font-size="8" text-anchor="middle" fill="#666">2008</text><text x="492" y="274" font-size="8" text-anchor="middle" fill="#666">2012</text><text x="546" y="274" font-size="8" text-anchor="middle" fill="#666">2016</text><polyline points="58,256 72,248 85,250 99,254 112,243 126,242 139,248 153,253 166,244 180,236 194,244 207,249 221,235 234,245 248,234 261,231 275,194 288,193 302,175 316,176 329,193 343,150 356,128 370,141 383,120 397,107 410,87 424,57 438,34 451,38 465,60 478,88 492,139 505,137 519,148 532,172 546,236" fill="none" stroke="#1f6f8b" stroke-width="1.6"/><line x1="58" y1="260" x2="546" y2="260" stroke="#999"/></svg>